<?xml version="1.0" encoding="iso-8859-1"?>
<!-- Generator: Adobe Illustrator 19.0.0, SVG Export Plug-In . SVG Version: 6.00 Build 0)  -->
<svg xmlns="http://www.w3.org/2000/svg" xmlns:xlink="http://www.w3.org/1999/xlink" version="1.1" id="Layer_1" x="0px" y="0px" viewBox="0 0 488.6 488.6" style="enable-background:new 0 0 488.6 488.6;" xml:space="preserve" width="512px" height="512px">
<g>
	<g>
		<path d="M340.6,180.7l-92.1-92.1c-1.1-1.1-2.7-1.8-4.2-1.8s-3.1,0.6-4.2,1.8L148,180.7c-2.3,2.3-2.3,6.1,0,8.5    c2.3,2.3,6.1,2.3,8.5,0l81.8-81.8v375.1c0,3.4,2.7,6.1,6,6.1s6-2.7,6-6V107.4l81.9,81.8c1.2,1.2,2.7,1.8,4.2,1.8s3.1-0.6,4.2-1.8    C342.9,186.9,342.9,183.1,340.6,180.7z" fill="#55c57a"/>
	</g>
</g>
<g>
	<g>
		<path d="M453.3,0h-418c-3.3,0-6,2.7-6,6v104.3c0,3.3,2.7,6,6,6s6-2.7,6-6V12h406v98.3c0,3.3,2.7,6,6,6s6-2.7,6-6V6    C459.3,2.7,456.6,0,453.3,0z" fill="#55c57a"/>
	</g>
</g>
<g>
</g>
<g>
</g>
<g>
</g>
<g>
</g>
<g>
</g>
<g>
</g>
<g>
</g>
<g>
</g>
<g>
</g>
<g>
</g>
<g>
</g>
<g>
</g>
<g>
</g>
<g>
</g>
<g>
</g>
</svg>
